<svg width="371" height="371" viewBox="0 0 371 371" fill="none" xmlns="http://www.w3.org/2000/svg">
<circle cx="185.5" cy="185.5" r="183.15" fill="#FD039D" stroke="black" stroke-width="3.3"/>
<path d="M57.2392 221.197C57.9662 219.559 58.9078 218.092 60.0643 216.798C61.2207 215.504 62.7227 214.501 64.5704 213.789C66.1224 213.191 67.6959 212.924 69.2909 212.989C70.8347 213.031 72.3162 213.351 73.7352 213.95C75.14 214.512 76.4384 215.349 77.6303 216.46C78.8079 217.534 79.7696 218.819 80.5153 220.314L87.9893 239.714L49.189 254.662L42.4839 237.257C42.0253 235.736 41.8723 234.183 42.0249 232.596C42.1406 231.024 42.5236 229.539 43.1739 228.143C43.81 226.71 44.6978 225.434 45.8372 224.316C46.9767 223.198 48.3409 222.333 49.9299 221.721C52.2209 220.838 54.6574 220.664 57.2392 221.197ZM73.2891 224.689C72.8763 223.617 72.1509 222.836 71.1129 222.345C70.0237 221.831 68.9248 221.787 67.8162 222.214C66.7446 222.627 65.9702 223.371 65.4932 224.446C65.0161 225.521 64.9727 226.62 65.3628 227.743L69.1425 237.554L77.0688 234.5L73.2891 224.689ZM61.6596 240.436L58.6273 232.565C58.2145 231.494 57.489 230.712 56.451 230.221C55.3761 229.744 54.2843 229.719 53.1757 230.146C52.1041 230.559 51.3482 231.296 50.9081 232.357C50.4168 233.395 50.3663 234.475 50.7564 235.598L53.7887 243.469L61.6596 240.436ZM75.0209 179.001L62.2989 187.598L62.382 194.132L75.2114 193.968L75.3248 202.878L33.7481 203.407L33.5206 185.529C33.4959 183.589 33.8486 181.743 34.5788 179.991C35.309 178.239 36.3191 176.701 37.6091 175.378C38.8596 174.055 40.3512 173.007 42.0839 172.232C43.8161 171.418 45.6919 170.998 47.7113 170.972C50.4435 170.938 52.9469 171.599 55.2215 172.956C57.4566 174.314 59.2023 176.113 60.4585 178.355L74.8893 168.666L75.0209 179.001ZM53.9646 186.219C53.9541 185.388 53.7858 184.618 53.46 183.909C53.1336 183.161 52.69 182.533 52.1291 182.025C51.5677 181.478 50.9286 181.05 50.2118 180.742C49.4555 180.435 48.6615 180.287 47.83 180.297C46.9984 180.308 46.2283 180.476 45.5196 180.802C44.7713 181.128 44.1235 181.572 43.5762 182.134C43.0284 182.655 42.6009 183.295 42.2937 184.051C41.986 184.768 41.8374 185.542 41.848 186.373L41.9501 194.392L54.0667 194.238L53.9646 186.219ZM78.2773 136.789L72.9932 151.427L78.8196 155.93L75.5524 164.981L41.2828 137.455L44.9736 127.23L88.9038 127.995L85.6567 136.99L78.2773 136.789ZM69.5276 136.536L53.2867 136.041L66.099 146.034L69.5276 136.536ZM110.096 92.1528C110.868 95.5838 110.937 98.9742 110.303 102.324C109.694 105.644 108.21 108.639 105.85 111.31C103.857 113.565 101.552 115.306 98.934 116.534C96.3166 117.762 93.5973 118.477 90.7763 118.679C87.9815 118.851 85.1966 118.504 82.4218 117.638C79.6436 116.715 77.112 115.244 74.8271 113.225C72.5719 111.232 70.8305 108.927 69.6028 106.309C68.3751 103.692 67.675 100.986 67.5025 98.191C67.3002 95.37 67.6473 92.5852 68.5437 89.8366C69.4367 87.0321 70.8927 84.4874 72.9119 82.2025C75.2457 79.5616 77.9239 77.727 80.9464 76.6987C83.9689 75.6705 87.2434 75.314 90.7697 75.6293L89.6363 84.5366C88.7578 84.3944 87.8697 84.323 86.9719 84.3223C86.0444 84.2954 85.1387 84.3934 84.2547 84.6163C83.3411 84.813 82.4509 85.1625 81.5841 85.6649C80.7174 86.1673 79.9038 86.8488 79.1433 87.7093C77.9633 89.0446 77.1307 90.5549 76.6456 92.24C76.1605 93.9252 75.9994 95.6325 76.1623 97.3618C76.2955 99.0649 76.7623 100.719 77.5628 102.325C78.3633 103.931 79.4313 105.324 80.7666 106.504C82.1019 107.684 83.6156 108.572 85.3077 109.169C86.9997 109.766 88.7139 110.039 90.4501 109.988C92.1567 109.911 93.8164 109.528 95.4291 108.839C97.0418 108.15 98.4381 107.138 99.6182 105.803C100.982 104.26 101.774 102.556 101.996 100.691C102.214 98.7693 102.026 96.8592 101.432 94.9601L110.096 92.1528ZM128.588 89.0648L121.111 93.9099L98.5001 59.015L105.978 54.1698L128.588 89.0648ZM157.705 70.7995L142.955 75.7647L143.052 83.1278L133.932 86.1979L134.177 42.2426L144.48 38.7745L171.2 73.6522L162.136 76.7033L157.705 70.7995ZM152.462 63.7899L142.749 50.7638L142.892 67.0116L152.462 63.7899ZM203.942 41.7992L191.885 41.6395L191.444 74.9005L182.535 74.7825L182.976 41.5214L170.859 41.3609L170.969 33.0456L204.052 33.4839L203.942 41.7992ZM236.834 76.8426L234.196 84.7293L209.24 76.3846L222.426 36.9507L247.044 45.1824L244.407 53.0692L228.127 47.6254L225.489 55.5121L237.714 59.5997L235.077 67.4865L222.852 63.3989L220.215 71.2857L236.834 76.8426ZM323.706 218.517C321.466 218.235 319.367 217.472 317.409 216.228C315.45 214.983 313.622 213.496 311.924 211.765C310.26 210.079 308.732 208.27 307.339 206.338C305.94 204.446 304.687 202.672 303.578 201.016L301.753 215.514L293.502 214.475L297.339 184.005L301.7 184.555C304.02 187.681 306.049 190.431 307.785 192.804C309.556 195.223 311.109 197.314 312.443 199.079C313.773 200.882 314.941 202.386 315.946 203.591C316.987 204.839 317.958 205.84 318.861 206.592C319.759 207.384 320.623 207.971 321.453 208.355C322.322 208.744 323.267 209.003 324.289 209.131C324.8 209.196 325.325 209.142 325.866 208.971C326.446 208.804 326.981 208.512 327.473 208.095C327.959 207.718 328.385 207.192 328.749 206.52C329.108 205.886 329.342 205.138 329.451 204.273C329.708 202.23 329.378 200.413 328.461 198.82C327.544 197.228 326.329 196.097 324.817 195.428C325.795 194.314 326.703 193.29 327.538 192.358C328.237 191.568 328.891 190.812 329.5 190.091C330.149 189.374 330.565 188.927 330.747 188.751C332.16 189.567 333.353 190.556 334.325 191.716C335.33 192.92 336.125 194.217 336.708 195.608C337.287 197.038 337.656 198.541 337.817 200.118C338.017 201.7 338.015 203.296 337.812 204.907C337.61 206.518 337.161 208.178 336.467 209.886C335.768 211.634 334.814 213.19 333.604 214.555C332.434 215.924 331.023 216.984 329.372 217.734C327.716 218.523 325.828 218.784 323.706 218.517ZM320.929 256.447C319.692 258.839 318.008 260.799 315.88 262.328C313.786 263.875 311.442 264.959 308.847 265.578C306.288 266.216 303.603 266.364 300.791 266.024C297.962 265.719 295.21 264.875 292.537 263.492C289.829 262.09 287.516 260.314 285.598 258.162C283.715 256.028 282.294 253.732 281.336 251.275C280.379 248.817 279.927 246.287 279.981 243.684C280.035 241.082 280.671 238.602 281.891 236.246C283.128 233.854 284.803 231.867 286.915 230.285C289.044 228.756 291.388 227.672 293.947 227.035C296.542 226.416 299.254 226.258 302.083 226.563C304.895 226.903 307.637 227.765 310.31 229.148C313.018 230.55 315.313 232.317 317.197 234.451C319.115 236.603 320.553 238.908 321.511 241.365C322.45 243.858 322.893 246.406 322.839 249.009C322.785 251.611 322.149 254.091 320.929 256.447ZM289.276 240.067C288.548 241.474 288.227 242.913 288.313 244.385C288.399 245.856 288.787 247.26 289.477 248.598C290.183 249.99 291.166 251.278 292.425 252.465C293.665 253.687 295.077 254.707 296.66 255.526C298.242 256.345 299.891 256.908 301.604 257.215C303.3 257.557 304.902 257.606 306.411 257.362C307.937 257.17 309.325 256.685 310.576 255.905C311.826 255.125 312.816 254.032 313.544 252.625C314.272 251.219 314.602 249.762 314.534 248.256C314.448 246.784 314.052 245.353 313.345 243.962C312.655 242.624 311.681 241.362 310.422 240.175C309.163 238.989 307.743 237.986 306.16 237.167C304.577 236.348 302.938 235.767 301.243 235.425C299.547 235.083 297.937 235.007 296.411 235.199C294.902 235.443 293.522 235.955 292.271 236.735C291.003 237.55 290.004 238.661 289.276 240.067ZM269.482 300.028C267.959 298.362 266.855 296.421 266.169 294.204C265.484 291.987 265.056 289.669 264.884 287.251C264.709 284.888 264.718 282.52 264.908 280.146C265.07 277.799 265.265 275.636 265.494 273.656L254.708 283.515L249.098 277.377L271.765 256.657L274.73 259.901C274.472 263.786 274.235 267.195 274.019 270.128C273.801 273.118 273.628 275.717 273.501 277.925C273.345 280.161 273.259 282.063 273.245 283.632C273.228 285.257 273.32 286.648 273.52 287.807C273.691 288.991 273.968 289.999 274.351 290.829C274.761 291.688 275.314 292.498 276.008 293.258C276.356 293.638 276.791 293.938 277.313 294.157C277.863 294.406 278.46 294.531 279.104 294.532C279.72 294.56 280.384 294.435 281.097 294.159C281.781 293.909 282.445 293.491 283.088 292.903C284.607 291.514 285.534 289.915 285.867 288.108C286.201 286.301 286.009 284.653 285.291 283.163C286.758 282.949 288.112 282.757 289.353 282.589C290.396 282.44 291.384 282.288 292.316 282.133C293.275 282.008 293.881 281.937 294.134 281.921C294.681 283.459 294.949 284.984 294.937 286.497C294.923 288.066 294.687 289.569 294.23 291.006C293.744 292.47 293.051 293.855 292.152 295.16C291.279 296.494 290.244 297.709 289.045 298.804C287.847 299.9 286.43 300.873 284.794 301.725C283.129 302.603 281.393 303.17 279.588 303.425C277.81 303.71 276.048 303.603 274.305 303.104C272.532 302.632 270.925 301.607 269.482 300.028ZM230.009 285.453C231.497 284.805 233.021 284.337 234.579 284.047C236.101 283.773 237.63 283.713 239.165 283.865C240.715 284.054 242.254 284.464 243.781 285.095C245.272 285.742 246.694 286.677 248.048 287.902C247.836 288.21 247.434 288.774 246.841 289.594C246.247 290.413 245.644 291.259 245.03 292.131C244.339 293.123 243.572 294.19 242.731 295.334C242.152 294.895 241.502 294.444 240.782 293.98C240.041 293.568 239.269 293.235 238.467 292.979C237.629 292.739 236.767 292.596 235.883 292.549C234.978 292.554 234.09 292.746 233.219 293.126C232.42 293.473 231.677 293.948 230.988 294.55C230.28 295.204 229.709 295.927 229.277 296.72C228.808 297.529 228.54 298.401 228.473 299.338C228.369 300.29 228.522 301.238 228.933 302.182C229.36 303.162 229.939 303.947 230.67 304.536C231.417 305.16 232.228 305.585 233.103 305.809C233.994 306.069 234.912 306.144 235.858 306.035C236.819 305.962 237.718 305.744 238.553 305.38C239.86 304.811 240.989 303.931 241.939 302.74C242.852 301.565 243.399 300.291 243.578 298.917L252.174 300.358L257.262 320.234L233.952 330.381L230.633 322.756L246.918 315.668L245.675 311.026C245.234 311.304 244.695 311.604 244.057 311.924C243.435 312.281 242.38 312.784 240.891 313.432C239.003 314.254 237.061 314.753 235.066 314.931C233.034 315.125 231.093 314.933 229.244 314.356C227.358 313.794 225.637 312.816 224.079 311.421C222.538 310.062 221.269 308.239 220.273 305.951C219.388 303.918 219 301.885 219.108 299.851C219.216 297.817 219.718 295.893 220.612 294.078C221.507 292.264 222.774 290.611 224.414 289.12C226.002 287.608 227.867 286.386 230.009 285.453Z" fill="#ADFC03"/>
<circle cx="186.325" cy="183.025" r="84.975" fill="white" stroke="black" stroke-width="3.3"/>
<path d="M145.9 230.875C151.4 228.61 153.855 225.203 154.708 221.8C156.03 216.523 153.503 211.252 152.5 210.25" stroke="black" stroke-width="3.3" stroke-linecap="round"/>
<path d="M155.8 221.8C164.875 230.325 193.42 239.62 215.2 221.8" stroke="black" stroke-width="3.3" stroke-linecap="round"/>
<path d="M160.21 131.05C166.137 131.05 171.738 134.819 175.938 141.403C180.125 147.967 182.769 157.137 182.769 167.35C182.769 177.563 180.125 186.733 175.938 193.297C171.738 199.881 166.137 203.65 160.21 203.65C154.283 203.65 148.682 199.881 144.482 193.297C140.294 186.733 137.651 177.563 137.651 167.35C137.651 157.137 140.294 147.967 144.482 141.403C148.682 134.819 154.283 131.05 160.21 131.05Z" fill="white" stroke="black" stroke-width="3.3"/>
<path d="M160.21 163.766C163.244 163.766 166.228 165.701 168.534 169.325C170.828 172.93 172.3 178.01 172.301 183.707C172.301 189.404 170.828 194.485 168.534 198.09C166.228 201.714 163.244 203.649 160.21 203.649C157.175 203.649 154.193 201.714 151.886 198.09C149.593 194.485 148.12 189.404 148.12 183.707C148.12 178.01 149.593 172.93 151.886 169.325C154.193 165.701 157.175 163.766 160.21 163.766Z" fill="black" stroke="black" stroke-width="3.3"/>
<path d="M211.246 131.05C217.173 131.05 222.774 134.819 226.973 141.403C231.161 147.967 233.804 157.137 233.804 167.35C233.804 177.563 231.161 186.733 226.973 193.297C222.774 199.881 217.173 203.65 211.246 203.65C205.318 203.65 199.717 199.881 195.517 193.297C191.33 186.733 188.686 177.563 188.686 167.35C188.686 157.137 191.33 147.967 195.517 141.403C199.717 134.819 205.318 131.05 211.246 131.05Z" fill="white" stroke="black" stroke-width="3.3"/>
<path d="M211.246 163.766C214.28 163.766 217.264 165.701 219.57 169.325C221.864 172.93 223.336 178.01 223.336 183.707C223.336 189.404 221.864 194.485 219.57 198.09C217.264 201.714 214.28 203.649 211.246 203.649C208.211 203.649 205.229 201.714 202.922 198.09C200.629 194.485 199.156 189.404 199.156 183.707C199.156 178.01 200.629 172.93 202.922 169.325C205.229 165.701 208.211 163.766 211.246 163.766Z" fill="black" stroke="black" stroke-width="3.3"/>
</svg>
